Simulation
nRows=32
nColumns=15
endheader
time  TH_x TH_y TH_z SC_y  SC_z  SC_x  AC_y  AC_z  AC_x  GH_y  GH_z  GH_yy  EL_x  PS_y
8.6175  0.000000  0.000000  0.000000  -34.947244128780824  2.4382623766164992  -7.533890785589864  41.45880475855995  13.12739823337878  4.282913140752918  109.34506183212979  4.8193558601402415  -94.46205904257161  20.583929213544902  120.000000
8.67495  0.000000  0.000000  0.000000  -34.64483870268131  2.422945804842007  -7.741703723029446  40.962230005432566  12.917859929105282  3.9381904392391687  100.78831930550928  5.404271079585703  -85.8089433182275  20.52005056248706  120.000000
8.7324  0.000000  0.000000  0.000000  -34.38699542587181  2.4360999779262285  -7.981305247598544  40.488955529000904  12.73293761301869  3.653932841983833  93.49618279861913  6.550902806038834  -78.16240920509266  20.62679157991838  120.000000
8.78985  0.000000  0.000000  0.000000  -34.23600186031256  2.523255777931893  -8.20471589360429  40.046737900716074  12.5582815572693  3.4592885191904954  88.69847636433622  8.32728576058743  -72.78719022465907  20.884336379999283  120.000000
8.8473  0.000000  0.000000  0.000000  -34.245842371518236  2.756649199591227  -8.372601922812077  39.64937331314691  12.38783626115309  3.3683877179154496  86.32687905974451  10.760418986840584  -69.70622481218444  21.232532438928743  120.000000
8.90475  0.000000  0.000000  0.000000  -34.45079861566415  3.216297407930441  -8.448883701555015  39.30479923228761  12.217937783221208  3.393955995333737  85.76177410893574  13.839126656027236  -68.42239388989255  21.599919980028705  120.000000
8.9622  0.000000  0.000000  0.000000  -34.854525778600475  3.966343256812377  -8.394169111958332  39.01219790881499  12.044553008842843  3.556397858514266  86.36917173232018  17.49991313221337  -68.42845691883511  21.92729868890987  120.000000
9.01965  0.000000  0.000000  0.000000  -35.4288787865928  5.029402543319746  -8.162683025117166  38.768968395593696  11.869576663064125  3.8784604245536674  87.65425909198825  21.620041222259474  -69.34418217597563  22.177439427764405  120.000000
9.0771  0.000000  0.000000  0.000000  -36.12780357925134  6.395121701843476  -7.697691544574262  38.58400923917041  11.69970251200575  4.382326262390355  89.25980505353924  26.04352385030783  -70.90593838757069  22.3372528647288  120.000000
9.13455  0.000000  0.000000  0.000000  -36.908897613226955  8.034042082788245  -6.930745061996457  38.48348238962784  11.545593240905347  5.084106647571277  90.91251744689369  30.613823013661325  -72.90990471576262  22.41031867901839  120.000000
9.192  0.000000  0.000000  0.000000  -37.75311052372952  9.891692736651573  -5.791177774703783  38.501903773674236  11.420530950079476  5.985253108864384  92.38992890188096  35.18475143115356  -75.17787633382335  22.40024276391849  120.000000
9.24945  0.000000  0.000000  0.000000  -38.67148803087863  11.894582936745591  -4.214899094602909  38.67299734062209  11.331729215685488  7.073729253641754  93.52720555727225  39.62470864108851  -77.55641997861254  22.30280150735303  120.000000
9.3069  0.000000  0.000000  0.000000  -39.698015887155705  13.956545091792156  -2.1531201571181486  39.02635992139364  11.276601030306306  8.326285268740065  94.21637329743145  43.82164054261789  -79.91263989742062  22.106530357130957  120.000000
9.36435  0.000000  0.000000  0.000000  -40.87723662059467  15.987415926335593  0.41973583663655867  39.58651719527835  11.245052752322326  9.711514415059218  94.40515734545478  47.68840839417698  -82.13375291821511  21.801813216330054  120.000000
9.421800000000001  0.000000  0.000000  0.000000  -42.249222148857775  17.8971367042339  3.4955477526444207  40.36901372110738  11.224406698228838  11.191694225103186  94.08977246356827  51.16573573546708  -84.12885316258398  21.392060870088052  120.000000
9.47925  0.000000  0.000000  0.000000  -43.840373187014855  19.594540899389912  7.0199671530648775  41.368917696985484  11.200586543836028  12.72145305545337  93.30300684016711  54.217239911451145  -85.83104917277404  20.899458098896368  120.000000
9.5367  0.000000  0.000000  0.000000  -45.64640310051238  20.993412338871916  10.884568814390601  42.557279435821954  11.160581489465033  14.245612560421574  92.10828042653489  56.82651234388616  -87.19828444851944  20.36226070256285  120.000000
9.59415  0.000000  0.000000  0.000000  -47.618186130394555  22.021890618424393  14.928165099064826  43.88298622331279  11.09636324291306  15.70091575078786  90.59138785712274  58.99739565437238  -88.20769914632206  19.825744766961748  120.000000
9.6516  0.000000  0.000000  0.000000  -49.655897313186784  22.64233775357651  18.950128367961636  45.273277752349344  11.007932606666449  17.02309920231706  88.85666280371858  60.74785926024996  -88.85081774078466  19.331796495704374  120.000000
9.70905  0.000000  0.000000  0.000000  -51.61740140900513  22.870045845704894  22.733055881839153  46.64574459182275  10.901957517837829  18.152062897624756  87.02640411070719  62.10645353471688  -89.13575655106848  18.910477322198606  120.000000
9.7665  0.000000  0.000000  0.000000  -53.34185772873166  22.772089041445792  26.06899960638691  47.919609162060304  10.787206351252124  19.035692883102584  85.23468071703554  63.10554546380116  -89.09058862567393  18.58083429760612  120.000000
9.82395  0.000000  0.000000  0.000000  -54.68330970831961  22.449877974244128  28.783948340159213  49.02012594233042  10.671176937477252  19.632330997086004  83.616686259701  63.77385116500298  -88.76669612189849  18.353064625719743  120.000000
9.8814  0.000000  0.000000  0.000000  -55.52971914467887  22.01133042584267  30.748806496348653  49.88174160125609  10.561463007160002  19.911329458471293  82.29163593601044  64.13209984867915  -88.23544320051838  18.22971067147777  120.000000
9.93885  0.000000  0.000000  0.000000  -55.809685961395886  21.545822411332445  31.879285473933347  50.45262826922034  10.468177415840106  19.8547001765859  81.34673480918823  64.19303421791105  -87.57821608305167  18.201688472544877  120.000000
9.9963  0.000000  0.000000  0.000000  -55.48919271710029  21.107297377994772  32.12830723053729  50.701132354561274  10.40533624738421  19.458512353879208  80.82332276520812  63.96430649787257  -86.87128072264862  18.248183246323066  120.000000
10.05375  0.000000  0.000000  0.000000  -54.56937460547662  20.707705597483024  31.48021363614815  50.620726128684964  10.389756867344525  18.736331891106623  80.71204410145583  63.451693578080786  -86.16804997121015  18.340611190591027  120.000000
10.1112  0.000000  0.000000  0.000000  -53.088240237642424  20.31432837843075  29.952513328320016  50.22953373176903  10.44003043947987  17.723020071412236  80.95628563738916  62.66077273138822  -85.48164029463395  18.44923305254235  120.000000
10.16865  0.000000  0.000000  0.000000  -51.12674841527423  19.855810549057182  27.607002190803406  49.56445215980876  10.579891729256625  16.47589806616458  81.4614509458912  61.59670767958331  -84.7713815161146  18.547151993267846  120.000000
10.2261  0.000000  0.000000  0.000000  -48.811791048171166  19.236491803408583  24.557584322394295  48.67404507646685  10.836646401961637  15.073644171344533  82.10730026935404  60.26385411249616  -83.94546434065329  18.612943432334596  120.000000
10.28355  0.000000  0.000000  0.000000  -46.30718434349503  18.36701449376891  20.96476095028054  47.61694427360105  11.23776222560504  13.609132174249023  82.76133920408338  58.66717906222706  -82.8814850151722  18.633557654915798  120.000000
10.341000000000001  0.000000  0.000000  0.000000  -43.791034630119526  17.193823412634956  17.01118731185553  46.4589142972531  11.798459380758985  12.180383763727885  83.29327159027399  56.81304739576707  -81.45924348586588  18.611088745981522  120.000000
10.39845  0.000000  0.000000  0.000000  -41.428554543484005  15.716664884330783  12.868915261830518  45.26493060159898  12.511697488986394  10.878257616204456  83.58654333542529  54.70814144646166  -79.58769017350392  18.573241302650246  120.000000
